<?xml version="1.0" encoding="UTF-8" standalone="no"?>
<svg
   xmlns:dc="http://purl.org/dc/elements/1.1/"
   xmlns:cc="http://creativecommons.org/ns#"
   xmlns:rdf="http://www.w3.org/1999/02/22-rdf-syntax-ns#"
   xmlns:svg="http://www.w3.org/2000/svg"
   xmlns="http://www.w3.org/2000/svg"
   xmlns:sodipodi="http://sodipodi.sourceforge.net/DTD/sodipodi-0.dtd"
   xmlns:inkscape="http://www.inkscape.org/namespaces/inkscape"
   version="1.0"
   width="58.385109pt"
   height="73.468399pt"
   viewBox="0 0 58.38511 73.4684"
   preserveAspectRatio="xMidYMid meet"
   id="svg895"
   sodipodi:docname="logo.svg"
   inkscape:version="1.0.1 (3bc2e813f5, 2020-09-07)">
  <metadata
     id="metadata901">
    <rdf:RDF>
      <cc:Work
         rdf:about="">
        <dc:format>image/svg+xml</dc:format>
        <dc:type
           rdf:resource="http://purl.org/dc/dcmitype/StillImage" />
        <dc:title></dc:title>
      </cc:Work>
    </rdf:RDF>
  </metadata>
  <defs
     id="defs899" />
  <sodipodi:namedview
     pagecolor="#ffffff"
     bordercolor="#666666"
     borderopacity="1"
     objecttolerance="10"
     gridtolerance="10"
     guidetolerance="10"
     inkscape:pageopacity="0"
     inkscape:pageshadow="2"
     inkscape:window-width="1920"
     inkscape:window-height="1057"
     id="namedview897"
     showgrid="false"
     width="20pt"
     inkscape:zoom="7.2329059"
     inkscape:cx="20.537641"
     inkscape:cy="50.763944"
     inkscape:window-x="-8"
     inkscape:window-y="-8"
     inkscape:window-maximized="1"
     inkscape:current-layer="g893"
     fit-margin-top="0"
     fit-margin-left="0"
     fit-margin-right="0"
     fit-margin-bottom="0" />
  <g
     transform="matrix(0.02948743,0,0,-0.02938736,13.239856,70.500277)"
     fill="#000000"
     stroke="none"
     id="g893">
    <path
       d="M -449,1149 V -101 h 206 205 l -4,27 c -3,16 -15,84 -26,152 -12,68 -20,128 -18,134 2,6 14,-5 27,-24 31,-43 39,-51 72,-73 20,-13 27,-14 32,-4 3,7 3,-1 0,-18 -3,-20 0,-35 9,-43 10,-8 15,-32 15,-77 0,-71 3,-80 27,-70 13,5 15,15 9,51 -7,48 11,135 28,135 6,0 9,-34 8,-82 -2,-46 -2,-89 -1,-95 1,-9 21,-13 66,-13 h 65 l 1,48 c 0,35 3,42 9,27 5,-11 9,-32 9,-47 l 1,-28 h 110 c 61,0 110,2 110,5 0,12 -50,104 -60,110 -16,10 -62,105 -50,105 5,0 10,-4 10,-9 0,-5 18,-26 39,-48 40,-39 91,-124 91,-150 0,-11 17,-13 82,-11 l 82,3 16,56 c 15,49 72,149 86,149 10,0 -11,-59 -42,-119 -19,-35 -34,-70 -34,-78 0,-10 18,-13 70,-13 h 70 v 62 c 0,72 12,69 20,-5 4,-39 9,-53 22,-55 16,-3 17,4 11,73 -4,49 -1,95 7,130 10,41 10,67 2,112 -6,32 -14,137 -18,233 -7,175 -6,175 20,235 l 27,60 -6,-369 c -3,-204 -8,-394 -12,-423 -3,-33 -2,-53 4,-53 12,0 23,33 23,72 0,15 9,33 20,41 11,8 18,16 15,19 -3,2 11,19 30,37 20,18 33,36 30,42 -6,8 49,69 61,69 3,0 2,-10 -1,-22 -3,-13 -12,-66 -20,-118 -8,-52 -17,-105 -21,-118 -4,-12 -2,-22 4,-22 5,0 12,15 14,33 3,17 10,52 16,77 6,25 16,74 22,110 8,50 17,70 37,87 l 26,21 -17,64 c -10,34 -26,88 -36,118 -10,30 -23,116 -30,190 -15,179 -34,300 -54,338 -9,18 -64,68 -129,116 -61,47 -134,105 -161,129 l -49,45 23,56 c 23,57 61,99 102,112 38,11 79,45 90,73 20,50 27,82 17,76 -5,-4 -9,-15 -9,-26 0,-22 -67,-89 -89,-89 -8,0 2,15 22,33 20,17 39,44 43,59 5,23 2,29 -20,39 -27,13 -35,29 -13,29 6,0 24,-7 40,-14 31,-17 34,-14 11,9 -15,15 -14,21 10,75 15,33 34,97 43,142 8,46 17,85 20,88 14,13 -12,-144 -34,-209 -21,-59 -24,-78 -14,-92 31,-50 -6,-143 -74,-185 -76,-48 -100,-70 -128,-123 l -28,-50 58,-48 c 32,-26 105,-82 162,-123 137,-98 149,-122 167,-335 17,-194 33,-315 46,-339 6,-11 21,-53 33,-93 l 23,-74 -33,-22 c -29,-19 -34,-29 -40,-77 -5,-47 -25,-144 -41,-202 -5,-17 9,-18 205,-18 h 211 V 1149 2399 H 541 -449 Z M 819,2248 c 47,-20 56,-35 16,-25 -17,5 -23,3 -19,-4 8,-13 2,-13 -29,1 -14,7 -23,16 -20,20 8,14 -45,22 -110,16 -74,-7 -165,-40 -226,-82 -46,-32 -127,-137 -133,-171 -1,-11 -5,-24 -9,-29 -8,-13 -28,-144 -37,-242 -9,-102 -18,-99 -14,5 5,140 30,247 74,322 47,80 55,89 99,122 116,86 294,115 408,67 z m -85,-6 c -7,-2 -19,-2 -25,0 -7,3 -2,5 12,5 14,0 19,-2 13,-5 z m 70,-57 c 42,-20 77,-42 77,-48 0,-6 -9,-3 -19,6 -19,17 -19,17 -9,-26 6,-24 15,-48 20,-55 11,-14 -20,-33 -55,-33 -14,0 -27,-7 -31,-15 -3,-8 -13,-15 -22,-15 -9,0 -22,-8 -29,-17 -11,-14 -60,-26 -145,-34 -8,-1 -23,-8 -34,-15 -10,-7 -26,-10 -35,-7 -12,3 -11,0 4,-12 20,-17 20,-17 -5,-10 -44,14 -85,55 -120,122 l -35,65 44,39 c 118,106 248,124 394,55 z m 152,-52 c 34,-58 31,-70 -4,-14 -15,25 -35,51 -44,59 -10,7 -17,18 -17,24 0,17 38,-23 65,-69 z m -595,-83 c 0,-18 77,-107 116,-133 21,-14 55,-29 74,-32 26,-4 30,-4 15,3 -17,8 -15,10 13,10 17,1 32,-4 32,-10 0,-7 21,-10 60,-7 43,2 59,0 56,-9 -14,-36 -104,-164 -118,-169 -10,-3 -18,-11 -18,-17 0,-7 -4,-18 -9,-26 -11,-17 -40,-3 -95,47 l -39,35 -14,-26 c -7,-15 -13,-39 -12,-54 3,-38 -10,-93 -22,-93 -5,0 -8,-24 -7,-52 1,-36 2,-43 5,-20 2,17 8,32 14,32 5,0 9,10 9,22 0,21 1,20 31,-8 29,-27 31,-27 24,-6 -6,20 -4,21 17,13 52,-21 129,-41 157,-41 53,0 35,-29 -47,-77 -26,-15 -69,-42 -97,-60 -27,-18 -55,-33 -62,-33 -8,0 -35,19 -61,41 l -47,42 47,-47 c 26,-25 40,-46 32,-46 -7,0 -26,14 -41,31 -27,30 -92,71 -79,50 4,-6 0,-11 -8,-11 -22,0 -28,16 -10,31 13,10 19,10 36,0 11,-7 17,-8 14,-2 -4,6 9,13 31,17 l 38,7 -29,10 c -22,7 -32,6 -40,-4 -10,-12 -24,-14 -72,-10 -20,2 -26,111 -9,169 17,56 21,59 51,37 24,-18 54,-19 54,-2 0,15 -58,77 -71,77 -5,0 -9,14 -9,30 0,17 4,30 8,30 7,0 48,-62 44,-67 -1,-2 7,-12 18,-23 11,-11 20,-28 20,-37 0,-9 3,-14 6,-10 11,11 -28,101 -58,132 -16,18 -28,42 -28,57 0,25 29,133 52,191 10,26 28,37 28,18 z m 640,-34 c 0,-24 -3,-28 -10,-17 -13,20 -13,63 0,55 6,-3 10,-21 10,-38 z m -19,-54 c 23,-72 -11,-252 -63,-329 -33,-49 -44,-42 -15,11 55,98 73,205 54,319 -10,56 5,56 24,-1 z m -71,-43 c 0,-12 -54,-40 -77,-40 -10,0 2,11 27,25 54,28 50,27 50,15 z M 744,1642 c -4,-11 -3,-14 5,-9 8,5 12,0 12,-13 0,-24 -22,-28 -40,-6 -8,9 -9,28 -5,55 l 7,42 14,-26 c 7,-15 10,-34 7,-43 z m -405,19 c 2,-7 -3,-12 -12,-12 -9,0 -16,7 -16,16 0,17 22,14 28,-4 z m -120,-65 c -8,-28 -8,-51 0,-94 7,-32 19,-96 27,-142 9,-47 23,-98 31,-115 l 15,-31 -20,23 c -11,12 -25,48 -31,80 -6,31 -18,86 -26,122 -17,77 -18,138 -4,176 15,39 21,24 8,-19 z m 379,11 c 71,-23 66,-33 -12,-28 -34,2 -98,38 -90,50 3,5 18,5 33,0 15,-5 46,-15 69,-22 z m -140,0 c -3,-8 -6,-5 -6,6 -1,11 2,17 5,13 3,-3 4,-12 1,-19 z m 28,-28 c 3,-5 1,-10 -4,-10 -6,0 -11,5 -11,10 0,6 2,10 4,10 3,0 8,-4 11,-10 z m 95,-32 c 0,-4 -6,-8 -14,-8 -27,0 -45,12 -40,25 5,11 11,11 30,3 13,-6 24,-15 24,-20 z m 286,16 c -3,-9 -6,-18 -6,-20 0,-2 -6,-4 -14,-4 -8,0 -16,-6 -19,-12 -2,-7 -8,-10 -12,-5 -9,8 32,57 48,57 5,0 6,-7 3,-16 z M 765,1414 c 3,-8 12,-12 21,-9 11,5 14,2 9,-10 -7,-19 -30,-21 -38,-3 -3,8 -11,5 -24,-10 -30,-34 -34,-28 -11,12 23,38 34,43 43,20 z m -452,-42 c 29,-14 64,-34 77,-45 l 24,-18 h -23 c -19,0 -64,16 -109,39 -13,6 -36,51 -26,51 2,0 27,-12 57,-27 z m 438,-63 c 0,-5 -5,-10 -11,-10 -5,0 -7,5 -4,10 3,6 8,10 11,10 2,0 4,-4 4,-10 z m -97,-21 c -10,-10 -205,-71 -210,-65 -4,4 54,29 127,54 64,23 100,28 83,11 z m -324,-15 c 1,-1 4,-15 4,-31 1,-15 5,-31 10,-34 4,-3 -12,-14 -35,-23 -24,-10 -102,-47 -175,-82 -100,-49 -136,-72 -152,-97 -22,-34 -28,-27 -8,10 14,25 75,73 93,73 6,0 47,20 90,43 44,24 95,47 115,51 42,7 57,36 29,54 -9,6 -20,20 -23,31 -4,18 -2,20 21,15 15,-4 29,-8 31,-10 z m 101,-55 c 0,-12 -67,-12 -75,0 -3,5 7,11 22,13 33,4 53,-1 53,-13 z m 265,-68 c -7,-32 -18,-67 -25,-77 -11,-18 -11,-18 -5,1 4,11 11,40 16,65 10,49 16,70 22,70 2,0 -2,-26 -8,-59 z m -266,5 c -9,-19 -10,-35 -2,-61 6,-20 7,-35 2,-35 -5,0 -9,3 -9,8 -1,4 -12,21 -26,37 l -25,30 11,-29 c 6,-16 8,-31 6,-34 -10,-9 23,-58 73,-106 47,-46 55,-50 108,-54 67,-4 116,13 160,56 16,16 29,39 30,52 2,17 -1,20 -10,11 -20,-20 -28,-12 -13,17 8,15 17,49 21,75 6,38 10,45 21,37 21,-18 26,-63 13,-115 C 759,919 583,846 485,917 c -62,45 -175,174 -180,206 -1,6 -5,19 -9,29 -5,11 -2,17 6,18 67,7 99,6 99,-3 0,-5 7,-2 16,7 22,22 27,13 13,-19 z m 314,5 c 7,-29 -9,-48 -21,-25 -10,20 -6,44 8,44 4,0 10,-9 13,-19 z m -240,-21 c -3,-11 -7,-20 -9,-20 -2,0 -4,9 -4,20 0,11 4,20 9,20 5,0 7,-9 4,-20 z m -207,-36 c 43,-54 48,-64 34,-77 -10,-9 -14,-9 -17,0 -5,14 -161,6 -180,-9 -20,-16 -15,-33 11,-48 30,-15 44,-42 18,-33 -9,3 1,-13 22,-35 22,-23 37,-45 33,-48 -9,-9 -35,13 -42,36 -3,10 -19,24 -35,32 -17,8 -46,37 -65,64 -33,46 -34,50 -18,62 28,22 176,92 194,92 8,0 29,-16 45,-36 z m 581,-19 c 59,-42 54,-50 -7,-12 -27,18 -50,36 -50,40 0,11 7,8 57,-28 z m -13,-19 c 17,-13 49,-32 72,-44 57,-29 65,-43 74,-122 7,-66 -3,-150 -19,-150 -3,0 -5,33 -4,72 1,40 -1,88 -4,105 -4,28 -8,31 -23,23 -13,-7 -21,-6 -26,2 -4,7 -3,8 4,4 7,-4 12,-1 12,8 0,9 -7,16 -16,16 -8,0 -12,5 -9,10 3,6 -1,10 -9,10 -26,0 -86,33 -86,47 0,8 -4,12 -9,8 -6,-3 -9,4 -8,15 2,26 13,25 51,-4 z M 89,950 c 40,-59 76,-141 62,-141 -4,0 -13,14 -20,30 -11,27 -14,28 -25,14 C 100,844 93,809 92,775 91,742 86,710 82,704 65,682 47,611 44,554 31,242 32,217 64,197 c 7,-5 3,-8 -11,-8 -25,0 -93,32 -131,61 -13,11 -36,19 -51,19 -15,0 -29,2 -32,5 -2,3 11,58 29,122 19,65 45,177 58,248 13,72 31,157 39,190 9,33 16,73 16,89 0,39 36,97 56,89 8,-3 32,-31 52,-62 z m 239,37 c 7,-9 2,-24 -17,-51 -34,-45 -48,-33 -30,24 13,40 30,49 47,27 z m 223,-13 c 0,-8 -6,-12 -14,-9 -8,3 -12,12 -9,20 6,17 23,9 23,-11 z m 25,15 c 3,-5 1,-10 -4,-10 -6,0 -11,5 -11,10 0,6 2,10 4,10 3,0 8,-4 11,-10 z m 320,-67 c 9,-19 15,-36 13,-39 -9,-8 -88,61 -88,77 0,45 47,21 75,-38 z m -235,38 c 0,-5 -8,-11 -17,-14 -10,-2 -26,-8 -35,-12 -10,-4 -18,-3 -18,2 0,6 15,15 33,21 17,5 33,10 35,11 1,1 2,-3 2,-8 z m 393,-58 c 8,-27 20,-72 26,-101 13,-64 41,-320 41,-380 0,-27 4,-41 12,-40 11,3 47,-106 48,-144 0,-12 -13,-21 -42,-28 -24,-7 -62,-18 -86,-26 -23,-8 -45,-14 -47,-14 -9,0 -5,126 6,211 12,91 29,129 29,64 0,-21 3,-35 7,-31 4,4 9,87 9,184 2,143 -1,192 -17,258 -10,45 -19,87 -19,93 0,25 18,-1 33,-46 z M -46,892 c -8,-78 -21,-100 -16,-26 5,60 9,83 17,83 2,0 2,-26 -1,-57 z m 488,7 c 4,-37 1,-52 -21,-93 -14,-26 -29,-47 -34,-47 -9,0 -1,128 8,137 2,3 15,-1 28,-8 21,-11 22,-11 9,4 -9,11 -10,17 -2,17 6,0 12,-4 12,-10 z M 280,868 c -16,-10 -23,-4 -14,10 3,6 11,8 17,5 6,-4 5,-9 -3,-15 z m 491,-34 c 31,-75 21,-88 -24,-30 -20,27 -33,51 -27,53 6,2 11,10 11,18 0,30 19,11 40,-41 z m -189,-2 c 0,-11 3,-13 6,-5 2,6 9,12 15,12 7,0 8,-25 4,-77 -13,-137 -37,-135 -44,4 -3,57 -1,83 7,83 6,0 11,-8 12,-17 z M -78,738 c -6,-24 -13,-66 -17,-94 -5,-32 -9,-42 -12,-27 -4,25 27,177 34,169 3,-3 0,-24 -5,-48 z m 498,-92 c 17,-30 22,-50 16,-63 -7,-17 -9,-17 -14,6 -8,32 -43,90 -55,90 -5,0 -6,-47 -3,-110 6,-106 -4,-150 -17,-72 -8,50 -8,217 1,225 10,11 45,-27 72,-76 z m 445,48 c 11,-30 -20,-245 -36,-245 -6,0 -7,8 -3,18 4,9 9,55 12,102 l 6,85 -26,-24 c -15,-13 -24,-28 -21,-33 3,-5 3,-17 -1,-26 -6,-15 -8,-15 -15,3 -14,33 -12,40 25,89 38,49 49,55 59,31 z M 521,632 c 0,-5 -7,-17 -15,-27 -9,-12 -15,-42 -15,-74 0,-57 12,-80 75,-148 24,-26 43,-91 46,-154 2,-51 0,-60 -11,-60 -6,0 -8,10 -4,24 3,13 1,50 -6,81 -9,43 -23,70 -62,116 -27,33 -54,76 -60,96 -10,36 -3,104 14,136 8,17 38,24 38,10 z M 755,596 C 795,535 776,449 707,377 670,339 665,327 654,254 l -12,-80 3,93 c 4,92 4,94 39,130 39,41 67,97 67,137 0,30 -26,85 -40,85 -6,0 -10,5 -10,10 0,16 37,-7 54,-33 z M -135,468 c -48,-167 -52,-229 -14,-229 10,0 22,-4 25,-10 9,-15 -28,-12 -50,3 -15,12 -17,23 -13,73 5,53 56,229 65,221 1,-2 -4,-28 -13,-58 z m 576,30 c 0,-11 -4,-17 -10,-14 -5,3 -10,15 -10,26 0,11 5,17 10,14 6,-3 10,-15 10,-26 z m 370,-11 c 0,-13 -5,-30 -10,-38 -7,-11 -10,-5 -10,23 0,20 5,37 10,37 6,0 10,-10 10,-22 z M 204,411 c 3,-16 9,-63 13,-105 l 7,-76 -28,-7 c -38,-9 -47,8 -42,91 6,104 37,164 50,97 z m 575,-36 c -9,-7 -35,-34 -57,-61 -65,-79 -52,-150 15,-81 61,63 88,40 33,-27 -33,-40 -62,-47 -91,-20 -38,34 -14,106 56,171 26,24 51,41 54,37 4,-4 -1,-12 -10,-19 z m 79,-28 c -3,-8 -6,-5 -6,6 -1,11 2,17 5,13 3,-3 4,-12 1,-19 z M 572,260 c 20,-52 -9,-101 -60,-101 -22,0 -76,70 -69,90 1,5 26,-5 54,-24 29,-19 54,-32 58,-29 16,17 3,65 -29,107 -19,26 -35,50 -35,54 1,12 72,-72 81,-97 z M 96,298 c -6,-25 -2,-36 21,-60 24,-25 26,-31 14,-39 -36,-23 -50,-12 -50,38 0,47 8,92 17,92 3,0 2,-14 -2,-31 z M 991,182 c 0,-20 -24,-11 -28,10 -2,12 1,15 12,11 9,-3 16,-13 16,-21 z M 1007,62 C 993,36 982,20 981,28 c 0,15 42,93 47,87 3,-2 -7,-26 -21,-53 z M -72,-33 c -3,-7 -5,-2 -5,12 0,14 2,19 5,13 2,-7 2,-19 0,-25 z"
       id="path879" />
    <path
       d="m 730,1846 c 0,-3 9,-10 20,-16 11,-6 20,-8 20,-6 0,3 -9,10 -20,16 -11,6 -20,8 -20,6 z"
       id="path881" />
    <path
       d="m 744,1642 c -12,-30 -2,-72 16,-72 7,0 5,9 -4,22 -14,20 -14,24 1,40 11,12 13,22 7,28 -6,6 -14,0 -20,-18 z"
       id="path883" />
    <path
       d="m 796,1252 c -3,-5 1,-9 9,-9 8,0 15,4 15,9 0,4 -4,8 -9,8 -6,0 -12,-4 -15,-8 z"
       id="path885" />
    <path
       d="m 536,1138 c 3,-4 9,-8 15,-8 5,0 9,4 9,8 0,5 -7,9 -15,9 -8,0 -12,-4 -9,-9 z"
       id="path887" />
    <path
       d="m 456,944 c -4,-14 -5,-28 -3,-31 3,-2 8,8 11,23 4,14 5,28 3,31 -3,2 -8,-8 -11,-23 z"
       id="path889" />
    <path
       d="m 375,419 c -11,-16 -1,-19 13,-3 7,8 8,14 3,14 -5,0 -13,-5 -16,-11 z"
       id="path891" />
  </g>
</svg>
