<?xml version="1.0" encoding="UTF-8" standalone="no"?>
<svg
   xmlns:dc="http://purl.org/dc/elements/1.1/"
   xmlns:cc="http://creativecommons.org/ns#"
   xmlns:rdf="http://www.w3.org/1999/02/22-rdf-syntax-ns#"
   xmlns:svg="http://www.w3.org/2000/svg"
   xmlns="http://www.w3.org/2000/svg"
   xmlns:sodipodi="http://sodipodi.sourceforge.net/DTD/sodipodi-0.dtd"
   xmlns:inkscape="http://www.inkscape.org/namespaces/inkscape"
   version="1.0"
   width="152.43446pt"
   height="158.18539pt"
   viewBox="0 0 152.43446 158.1854"
   preserveAspectRatio="xMidYMid meet"
   id="svg895"
   sodipodi:docname="logo_animation.svg"
   inkscape:version="1.0.1 (3bc2e813f5, 2020-09-07)">
  <metadata
     id="metadata901">
    <rdf:RDF>
      <cc:Work
         rdf:about="">
        <dc:format>image/svg+xml</dc:format>
        <dc:type
           rdf:resource="http://purl.org/dc/dcmitype/StillImage" />
        <dc:title></dc:title>
      </cc:Work>
    </rdf:RDF>
  </metadata>
  <defs
     id="defs899" />
  <sodipodi:namedview
     pagecolor="#ffffff"
     bordercolor="#666666"
     borderopacity="1"
     objecttolerance="10"
     gridtolerance="10"
     guidetolerance="10"
     inkscape:pageopacity="0"
     inkscape:pageshadow="2"
     inkscape:window-width="1920"
     inkscape:window-height="1057"
     id="namedview897"
     showgrid="false"
     width="20pt"
     inkscape:zoom="1.8082265"
     inkscape:cx="-79.175697"
     inkscape:cy="82.501217"
     inkscape:window-x="-8"
     inkscape:window-y="-8"
     inkscape:window-maximized="1"
     inkscape:current-layer="g893"
     fit-margin-top="0"
     fit-margin-left="0"
     fit-margin-right="0"
     fit-margin-bottom="0"
     inkscape:pagecheckerboard="true" />
  <g
     transform="matrix(0.02948743,0,0,-0.02938736,-10.400547,39.558854)"
     fill="#000000"
     stroke="none"
     id="g893">
    <path
       d="m 352.71119,-1345.267 v -2691.3849 h 537.83395 535.22316 l -10.4433,58.1339 c -7.8326,34.4497 -39.1626,180.8612 -67.882,327.2725 -31.3301,146.4113 -52.2168,275.5978 -46.9952,288.5164 5.2218,12.9186 36.5519,-10.7656 70.4928,-51.6747 80.9362,-92.5835 101.823,-109.8084 187.9808,-157.1767 52.2169,-27.9904 70.4929,-30.1436 83.5471,-8.6125 7.8325,15.0718 7.8325,-2.1531 0,-38.756 -7.8326,-43.0621 0,-75.3587 23.4976,-92.5835 26.1085,-17.2249 39.1627,-68.8994 39.1627,-165.7894 0,-152.8707 7.8325,-172.2486 70.4928,-150.7175 33.9409,10.7655 39.1626,32.2966 23.4975,109.8085 -18.2758,103.3491 28.7193,290.6696 73.1037,290.6696 15.665,0 23.4976,-73.2057 20.8868,-176.555 -5.2218,-99.0428 -5.2218,-191.6265 -2.6108,-204.5452 2.6108,-19.3779 54.8277,-27.9904 172.3157,-27.9904 h 169.7049 l 2.6109,103.3492 c 0,75.3587 7.8324,90.4306 23.4975,58.1339 13.0542,-23.6841 23.4975,-68.8995 23.4975,-101.196 l 2.6109,-60.2871 h 287.1929 c 159.2616,0 287.193,4.3062 287.193,10.7657 0,25.8372 -130.5423,223.9232 -156.6507,236.8417 -41.7737,21.5311 -161.8724,226.0765 -130.5423,226.0765 13.0543,0 26.1085,-8.6125 26.1085,-19.3781 0,-10.7654 46.9952,-55.9809 101.823,-103.3492 104.4337,-83.9711 237.5868,-266.9853 237.5868,-322.9662 0,-23.6842 44.3844,-27.9904 214.0893,-23.6842 l 214.0893,6.4595 41.7734,120.5739 c 39.1627,105.5024 187.9808,320.813 224.5327,320.813 26.1084,0 -28.7193,-127.0332 -109.6554,-256.2197 -49.6062,-75.3587 -88.7688,-150.7177 -88.7688,-167.9425 0,-21.5311 46.9952,-27.9904 182.7592,-27.9904 h 182.759 v 133.4928 c 0,155.0237 31.33,148.5643 52.2169,-10.7657 10.4435,-83.9712 23.4977,-114.1146 57.4387,-118.4209 41.7734,-6.4592 44.3843,8.6125 28.7192,157.1769 -10.4434,105.5024 -2.6108,204.5453 18.2759,279.9041 26.1084,88.2774 26.1084,144.2583 5.2217,241.148 -15.6651,68.8995 -36.5519,294.9759 -46.9951,501.6742 -18.276,376.7939 -15.6653,376.7939 52.2168,505.9804 l 70.4928,129.1865 -15.665,-794.4969 c -7.8326,-439.2339 -20.8869,-848.3245 -31.3303,-910.7646 -7.8325,-71.0526 -5.2217,-114.1148 10.4434,-114.1148 31.3302,0 60.0495,71.0526 60.0495,155.0239 0,32.2965 23.4976,71.0525 52.2168,88.2773 28.7195,17.225 46.9953,34.4498 39.1628,40.9091 -7.8326,4.3062 28.7193,40.9091 78.3253,79.665 52.2168,38.7559 86.1579,77.5119 78.3253,90.4305 -15.665,17.2249 127.9314,148.5643 159.2614,148.5643 7.8326,0 5.2219,-21.531 -2.6107,-47.3682 -7.8325,-27.9904 -31.3301,-142.1052 -52.2169,-254.0667 -20.8867,-111.9617 -44.3845,-226.0764 -54.8277,-254.0668 -10.4434,-25.8373 -5.2217,-47.3684 10.4432,-47.3684 13.0543,0 31.3303,32.2967 36.552,71.0526 7.8325,36.6028 26.1085,111.9616 41.7736,165.7894 15.6649,53.8277 41.7734,159.3299 57.4385,236.8419 20.8868,107.6552 44.3843,150.7174 96.6012,187.3203 l 67.8819,45.2152 -44.3842,137.7989 c -26.1085,73.2058 -67.8821,189.4735 -93.9905,254.0667 -26.1084,64.5933 -60.0494,249.7606 -78.3254,409.0905 -39.1626,385.4064 -88.7687,645.9324 -140.9855,727.7506 -23.4975,38.7558 -167.0941,146.4113 -336.7989,249.7605 -159.2616,101.1961 -349.8533,226.0763 -420.346,277.7509 l -127.9315,96.8899 60.0495,120.574 c 60.0494,122.7271 159.2615,213.15767 266.3062,241.14807 99.212,23.68419 206.2567,96.88986 234.976,157.17689 52.2169,107.65539 70.4927,176.55484 44.3843,163.6362 -13.0542,-8.61244 -23.4976,-32.29663 -23.4976,-55.98081 0,-47.36838 -174.9265,-191.6266 -232.3652,-191.6266 -20.8866,0 5.2217,32.29661 57.4387,71.05256 52.2167,36.60283 101.8229,94.73675 112.2662,127.03337 13.0543,49.52148 5.2217,62.44012 -52.2169,83.97121 -70.4927,27.99039 -91.3795,62.44012 -33.9408,62.44012 15.665,0 62.6602,-15.07176 104.4336,-30.14351 80.9362,-36.60284 88.7688,-30.14351 28.7192,19.37797 -39.1625,32.29662 -36.5517,45.21527 26.1086,161.48311 39.1626,71.05258 88.7687,208.851537 112.2663,305.741389 20.8868,99.042891 44.3842,183.013991 52.2169,189.473551 36.5518,27.9902 -31.3301,-310.047624 -88.7687,-449.99971 -54.8277,-127.03335 -62.6603,-167.9424 -36.5519,-198.0859 80.9362,-107.65539 -15.6649,-307.89443 -193.2025,-398.32497 -198.4241,-103.34922 -261.0844,-150.71758 -334.188,-264.83224 l -73.1036,-107.6554 151.4289,-103.3492 c 83.5469,-55.9808 274.1386,-176.5548 422.9568,-264.8323 357.6857,-211.0046 389.0159,-262.6791 436.0109,-721.2911 44.3847,-417.703 86.158,-678.2291 120.099,-729.9036 15.6651,-23.6841 54.8278,-114.1148 86.1578,-200.2391 l 60.0494,-159.33 -86.1578,-47.3684 c -75.7144,-40.909 -88.7686,-62.44 -104.4338,-165.7891 -13.0542,-101.1962 -65.271,-310.0476 -107.0446,-434.928 -13.0542,-36.6028 23.4976,-38.7559 535.2233,-38.7559 h 550.8881 V -1345.267 1346.118 H 2937.4474 352.71119 Z M 3663.2623,1020.9986 c 122.7095,-43.06216 146.2073,-75.35871 41.7734,-53.82757 -44.3843,10.76541 -60.0494,6.45923 -49.606,-8.61252 20.8867,-27.99028 5.2217,-27.99028 -75.7145,2.15305 -36.5518,15.07183 -60.0495,34.44984 -52.2169,43.06224 20.8867,30.1435 -117.488,47.3684 -287.1929,34.4497 -193.2027,-15.0717 -430.7893,-86.12422 -590.051,-176.55479 -120.0988,-68.89944 -331.5772,-294.97591 -347.2424,-368.18145 -2.6106,-23.6841 -13.0542,-51.67464 -23.4974,-62.44012 -20.8868,-27.99045 -73.1037,-310.04759 -96.6013,-521.05216 -23.4975,-219.617 -46.9952,-213.15773 -36.5518,10.765537 13.0543,301.435103 78.3253,531.817763 193.2025,693.300823 122.7096,172.24854 143.5964,191.62655 258.4736,262.67912 302.858,185.16724 767.5884,247.60734 1065.2247,144.25814 z M 3441.3405,1008.08 c -18.2759,-4.3062 -49.6062,-4.3062 -65.2711,0 -18.2759,6.4593 -5.2217,10.7655 31.33,10.7655 36.5519,0 49.6062,-4.3062 33.9411,-10.7655 z m 182.759,-122.7271 c 109.6555,-43.06212 201.0351,-90.43058 201.0351,-103.34911 0,-12.91879 -23.4976,-6.45948 -49.6061,12.91853 -49.606,36.60289 -49.606,36.60289 -23.4975,-55.98081 15.665,-51.67456 39.1626,-103.34912 52.2168,-118.42095 28.7194,-30.14349 -52.2168,-71.05256 -143.5964,-71.05256 -36.5519,0 -70.4928,-15.07167 -80.9362,-32.29655 -7.8326,-17.22488 -33.941,-32.29663 -57.4385,-32.29663 -23.4978,0 -57.4387,-17.22488 -75.7146,-36.60289 -28.7194,-30.14341 -156.6506,-55.98073 -378.5725,-73.20561 -20.8869,-2.15313 -60.0494,-17.22488 -88.7686,-32.29671 -26.1085,-15.07175 -67.882,-21.53106 -91.3797,-15.07175 -31.3301,6.45939 -28.7192,0 10.4435,-25.83732 52.2168,-36.60264 52.2168,-36.60264 -13.0542,-21.53106 -114.8772,30.14358 -221.9219,118.42103 -313.3015,262.67921 l -91.3795,139.95208 114.8771,83.97119 C 2903.5065,995.1614 3242.9162,1033.9173 3624.0995,885.3529 Z M 4020.948,773.39118 c 88.7686,-124.88017 80.9361,-150.71741 -10.4434,-30.14341 -39.1627,53.82768 -91.3797,109.8085 -114.8772,127.0333 -26.1085,15.07183 -44.3844,38.75594 -44.3844,51.67464 0,36.6028 99.2121,-49.52151 169.705,-148.56453 z M 2467.4953,594.68341 c 0,-38.75602 201.035,-230.38266 302.8581,-286.3634 54.8278,-30.14358 143.5965,-62.44012 193.2025,-68.89959 67.8819,-8.61236 78.3253,-8.61236 39.1627,6.45947 -44.3844,17.22488 -39.1627,21.53106 33.9409,21.53106 44.3843,2.15305 83.5469,-8.61252 83.5469,-21.53106 0,-15.07183 54.8279,-21.53114 156.6509,-15.07183 112.2663,4.30618 154.0399,0 146.2073,-19.37793 -36.5519,-77.51196 -271.5279,-353.10979 -308.0797,-363.87533 -26.1085,-6.45926 -46.9953,-23.68414 -46.9953,-36.60281 0,-15.07174 -10.4434,-38.75596 -23.4975,-55.98077 -28.7194,-36.60289 -104.4339,-6.45933 -248.0303,101.19606 l -101.823,75.358709 -36.5517,-55.980769 c -18.2759,-32.29662 -33.941,-83.97118 -31.3301,-116.2678 7.8324,-81.81812 -26.1085,-200.23907 -57.4387,-200.23907 -13.0543,0 -20.8868,-51.67458 -18.2759,-111.9616 2.6109,-77.5119 5.2216,-92.58364 13.0542,-43.06217 5.2217,36.60284 20.8868,68.89945 36.5519,68.89945 13.0542,0 23.4976,21.53108 23.4976,47.36838 0,45.21527 2.6109,43.06216 80.9362,-17.22487 75.7144,-58.13391 80.9362,-58.13391 62.6602,-12.91864 -15.665,43.06215 -10.4434,45.21526 44.3844,27.9904 135.7638,-45.21527 336.7989,-88.27743 409.9026,-88.27743 138.3748,0 91.3794,-62.44012 -122.7098,-165.7893 -67.8819,-32.29662 -180.1482,-90.43054 -253.2519,-129.18645 -70.4928,-38.75597 -143.5964,-71.05259 -161.8723,-71.05259 -20.8868,0 -91.3795,40.90903 -159.2615,88.27742 l -122.7098,90.43054 122.7098,-101.19607 c 67.882,-53.82774 104.4337,-99.04296 83.547,-99.04296 -18.2759,0 -67.882,30.14348 -107.0447,66.7463 -70.4927,64.59328 -240.1976,152.87071 -206.2566,107.65543 10.4433,-12.91864 0,-23.68418 -20.8869,-23.68418 -57.4386,0 -73.1035,34.44973 -26.1083,66.74635 33.9408,21.53107 49.6059,21.53107 93.9903,0 28.7192,-15.07175 44.3843,-17.22487 36.5518,-4.30622 -10.4433,12.91865 23.4976,27.9904 80.9362,36.60284 l 99.2122,15.07175 -75.7146,21.53108 c -57.4385,15.07176 -83.547,12.91865 -104.4338,-8.61244 -26.1084,-25.83728 -62.6603,-30.14351 -187.9809,-21.53107 -52.2167,4.30622 -67.8818,238.99496 -23.4975,363.87526 44.3844,120.574 54.8279,127.03335 133.1532,79.66499 62.6601,-38.75596 140.9855,-40.90902 140.9855,-4.30621 0,32.29662 -151.4291,165.789306 -185.37,165.789306 -13.0542,0 -23.4975,30.143481 -23.4975,64.593232 0,36.6028233 10.4433,64.59324 20.8868,64.59324 18.2758,0 125.3204,-133.492678 114.8771,-144.258208 -2.6108,-4.30621 18.2758,-25.83736 46.9951,-49.5215 28.7194,-23.68423 52.2169,-60.28704 52.2169,-79.66499 0,-19.37801 7.8325,-30.14355 15.6651,-21.53108 28.7194,23.68415 -73.1037,217.463862 -151.429,284.210241 -41.7736,38.755953 -73.1036,90.430529 -73.1036,122.727239 0,53.82761 75.7147,286.36332 135.764,411.24357 26.1084,55.98073 73.1035,79.665 73.1035,38.75602 z m 1670.9406,-73.20578 c 0,-51.67447 -7.8325,-60.28708 -26.1085,-36.60281 -33.9409,43.06212 -33.9409,135.64574 0,118.42086 15.6652,-6.45922 26.1085,-45.21516 26.1085,-81.81805 z m -49.6061,-116.26789 c 60.0495,-155.02367 -28.7192,-542.58319 -164.4832,-708.37249 -86.1578,-105.50228 -114.877,-90.43052 -39.1627,23.68421 143.5965,211.004529 190.5917,441.38716 140.9857,686.84149 -26.1085,120.57399 13.0543,120.57399 62.6602,-2.15321 z m -185.3699,-92.58363 c 0,-25.83724 -140.9855,-86.12431 -201.035,-86.12431 -26.1085,0 5.2216,23.68427 70.4928,53.82768 140.9857,60.287 130.5422,58.13395 130.5422,32.29663 z m -436.011,-596.41084 c -10.4433,-23.68422 -7.8326,-30.14356 13.0542,-19.37802 20.8867,10.76554 31.3301,0 31.3301,-27.99042 0,-51.67457 -57.4385,-60.28699 -104.4338,-12.91861 -20.8867,19.37794 -23.4975,60.28705 -13.0542,118.42095 l 18.2759,90.43051 36.5519,-55.98083 c 18.2759,-32.29662 26.1084,-73.20565 18.2759,-92.58358 z m -1057.3922,40.90902 c 5.2217,-15.07174 -7.8325,-25.83728 -31.3301,-25.83728 -23.4976,0 -41.7735,15.07174 -41.7735,34.44968 0,36.60289 57.4387,30.14356 73.1036,-8.6124 z m -313.3013,-139.95203 c -20.8866,-60.28701 -20.8866,-109.80849 0,-202.39214 18.276,-68.89945 49.6061,-206.69835 70.4928,-305.74136 23.4975,-101.19606 60.0495,-211.00456 80.9363,-247.60736 l 39.1626,-66.7464 -52.2168,49.5215 c -28.7194,25.8373 -65.2713,103.3492 -80.9363,172.24868 -15.665,66.7463 -46.9952,185.16726 -67.882,262.67915 -44.3843,165.7893 -46.9951,297.12888 -10.4432,378.94696 39.1626,83.97126 54.8276,51.67464 20.8866,-40.90903 z m 989.5101,23.6842 c 185.3699,-49.52149 172.3157,-71.05257 -31.3302,-60.28703 -88.7687,4.30621 -255.8627,81.81813 -234.9759,107.65542 7.8325,10.76554 46.9951,10.76554 86.158,0 39.1626,-10.76555 120.0987,-32.29663 180.1481,-47.36839 z m -365.5182,0 c -7.8324,-17.22487 -15.665,-10.76555 -15.665,12.91862 -2.6109,23.68422 5.2216,36.6029 13.0542,27.99042 7.8325,-6.45934 10.4433,-25.83728 2.6108,-40.90904 z m 73.1036,-60.28703 c 7.8326,-10.76554 2.6109,-21.53108 -10.4433,-21.53108 -15.6651,0 -28.7194,10.76554 -28.7194,21.53108 0,12.91865 5.2218,21.53108 10.4434,21.53108 7.8327,0 20.8869,-8.61243 28.7193,-21.53108 z m 248.0303,-68.89946 c 0,-8.61243 -15.6651,-17.22486 -36.5518,-17.22486 -70.493,0 -117.4881,25.8373 -104.4338,53.8277 13.0543,23.68419 28.7193,23.68419 78.3254,6.45932 33.9409,-12.91864 62.6602,-32.29662 62.6602,-43.06216 z m 746.7015,34.44974 c -7.8325,-19.37798 -15.665,-38.75594 -15.665,-43.06217 0,-4.3062 -15.6651,-8.61243 -36.5518,-8.61243 -20.8867,0 -41.7736,-12.91865 -49.6061,-25.83729 -5.2217,-15.07176 -20.8867,-21.53107 -31.3301,-10.76555 -23.4976,17.22488 83.547,122.72716 125.3205,122.72716 13.0543,0 15.665,-15.07175 7.8325,-34.44972 z m -266.306,-320.81308 c 7.8325,-17.22486 31.3301,-25.8373 54.8277,-19.37797 28.7192,10.76553 36.5517,4.30622 23.4975,-21.53109 -18.2759,-40.90905 -78.3252,-45.21526 -99.2121,-6.45932 -7.8325,17.22487 -28.7193,10.76554 -62.6603,-21.53108 -78.3252,-73.20569 -88.7686,-60.28702 -28.7192,25.83729 60.0495,81.81811 88.7686,92.58365 112.2664,43.06217 z m -1180.1019,-90.43051 c 75.7145,-30.14356 167.0941,-73.20573 201.0351,-96.88986 l 62.6603,-38.75596 h -60.0495 c -49.606,0 -167.0941,34.44968 -284.582,83.97118 -33.941,12.91867 -93.9905,109.80853 -67.8821,109.80853 5.2218,0 70.4929,-25.83729 148.8182,-58.13389 z m 1143.55,-135.64582 c 0,-10.7655 -13.0543,-21.5311 -28.7192,-21.5311 -13.0543,0 -18.2761,10.7656 -10.4435,21.5311 7.8326,12.91868 20.8868,21.53108 28.7193,21.53108 5.2217,0 10.4434,-8.6124 10.4434,-21.53108 z m -253.2521,-45.2152 c -26.1083,-21.5312 -535.2229,-152.8707 -548.2772,-139.952 -10.4433,8.6124 140.9857,62.4401 331.5772,116.2678 167.0941,49.5215 261.0846,60.287 216.7,23.6842 z m -845.9136,-32.2966 c 2.6109,-2.1532 10.4434,-32.2967 10.4434,-66.7464 2.6109,-32.2966 13.0542,-66.7463 26.1085,-73.2057 10.4435,-6.4593 -31.3301,-30.1435 -91.3796,-49.5215 -62.6603,-21.531 -266.3061,-101.1961 -456.8977,-176.5548 -261.0845,-105.5024 -355.0749,-155.0238 -396.8485,-208.8515 -57.4386,-73.2057 -73.1036,-58.1338 -20.8867,21.531 36.5518,53.8277 195.8134,157.1769 242.8086,157.1769 15.665,0 122.7096,43.0622 234.9759,92.5837 114.8772,51.6746 248.0303,101.1961 300.2473,109.8085 109.6554,15.0718 148.8179,77.5119 75.7144,116.2678 -23.4976,12.9187 -52.2169,43.0622 -60.0494,66.7464 -10.4433,38.756 -5.2217,43.0622 54.8277,32.2966 39.1627,-8.6124 75.7146,-17.2248 80.9361,-21.531 z m 263.6953,-118.4211 c 0,-25.8372 -174.9266,-25.8372 -195.8133,0 -7.8324,10.7657 18.276,23.6843 57.4387,27.9905 86.1578,8.6124 138.3746,-2.1531 138.3746,-27.9905 z m 691.8739,-146.4112 c -18.2758,-68.8995 -46.9951,-144.2583 -65.271,-165.7894 -28.7195,-38.7559 -28.7195,-38.7559 -13.0543,2.1531 10.4433,23.6842 28.7193,86.1243 41.7734,139.952 26.1085,105.5023 41.7736,150.7176 57.4387,150.7176 5.2217,0 -5.2216,-55.9808 -20.8868,-127.0333 z m -694.4847,10.7655 c -23.4975,-40.9091 -26.1084,-75.3588 -5.2217,-131.3396 15.6652,-43.0622 18.2758,-75.3588 5.2217,-75.3588 -13.0542,0 -23.4975,6.4593 -23.4975,17.2248 -2.6109,8.6125 -31.3301,45.2154 -67.8821,79.6651 l -65.2711,64.5932 28.7194,-62.44 c 15.6651,-34.4499 20.8867,-66.7465 15.6651,-73.2058 -26.1085,-19.378 60.0493,-124.8803 190.5916,-228.2294 122.7097,-99.043 143.5964,-107.6554 281.9712,-116.2678 174.9266,-8.6125 302.8581,27.9904 417.7351,120.574 41.7736,34.4496 75.7145,83.9712 78.3253,111.9617 5.2218,36.6028 -2.6108,43.062 -26.1084,23.6841 -52.2169,-43.0622 -73.1036,-25.8373 -33.9409,36.6029 20.8867,32.2965 44.3844,105.5022 54.8276,161.483 15.6652,81.8181 26.1085,96.8899 54.8279,79.6651 54.8277,-38.7561 67.8819,-135.6459 33.9409,-247.6075 -80.9363,-269.1385 -540.445,-426.3154 -796.3076,-273.4447 -161.8724,96.8898 -456.8976,374.6408 -469.9519,443.5402 -2.611,12.9187 -13.0543,40.9091 -23.4978,62.4402 -13.0542,23.6842 -5.2216,36.6028 15.6652,38.7559 174.9265,15.0718 258.4735,12.9187 258.4735,-6.4593 0,-10.7656 18.276,-4.3062 41.7736,15.0718 57.4386,47.3684 70.4928,27.9903 33.9409,-40.9091 z m 819.8053,10.7655 c 18.2759,-62.4401 -23.4976,-103.3492 -54.8278,-53.8277 -26.1084,43.0622 -15.665,94.7368 20.8868,94.7368 10.4434,0 26.1084,-19.378 33.941,-40.9091 z m -626.6028,-45.2153 c -7.8324,-23.6841 -18.2759,-43.0621 -23.4975,-43.0621 -5.2217,0 -10.4435,19.378 -10.4435,43.0621 0,23.6843 10.4435,43.0623 23.4976,43.0623 13.0542,0 18.276,-19.378 10.4434,-43.0623 z m -540.4447,-77.5118 c 112.2662,-116.2678 125.3205,-137.799 88.7686,-165.7894 -26.1085,-19.378 -36.5518,-19.378 -44.3843,0 -13.0543,30.1435 -420.346,12.9187 -469.952,-19.378 -52.217,-34.4496 -39.1627,-71.0525 28.7192,-103.3492 78.3254,-32.2965 114.8773,-90.4305 46.9952,-71.0524 -23.4976,6.4593 2.6109,-27.9904 57.4386,-75.3588 57.4386,-49.5216 96.6012,-96.8899 86.1578,-103.3492 -23.4974,-19.3779 -91.3795,27.9904 -109.6554,77.5119 -7.8325,21.531 -49.6061,51.6746 -91.3795,68.8995 -44.3844,17.2248 -120.0989,79.6649 -169.7049,137.7987 -86.158,99.0431 -88.7688,107.6556 -46.9953,133.4929 73.1037,47.3683 459.5087,198.0858 506.5039,198.0858 20.8867,0 75.7145,-34.4497 117.4881,-77.5118 z m 1516.9006,-40.9091 c 154.0399,-90.4305 140.9857,-107.6554 -18.2759,-25.8373 -70.4927,38.756 -130.5422,77.5119 -130.5422,86.1243 0,23.6842 18.2759,17.2249 148.8181,-60.287 z m -33.941,-40.909 c 44.3845,-27.9905 127.9313,-68.8995 187.9809,-94.7367 148.8182,-62.4403 169.705,-92.5838 193.2025,-262.6793 18.2759,-142.105 -7.8326,-322.9661 -49.606,-322.9661 -7.8326,0 -13.0543,71.0525 -10.4434,155.0238 2.6108,86.1243 -2.6109,189.4734 -10.4434,226.0763 -10.4434,60.287 -20.8868,66.7463 -60.0494,49.5215 -33.9411,-15.0718 -54.8278,-12.9187 -67.882,4.3062 -10.4434,15.0717 -7.8325,17.2248 10.4433,8.6123 18.276,-8.6123 31.3302,-2.153 31.3302,17.225 0,19.3779 -18.276,34.4498 -41.7735,34.4498 -20.8868,0 -31.3301,10.7654 -23.4977,21.5309 7.8326,12.9187 -2.6107,21.5311 -23.4976,21.5311 -67.8819,0 -224.5326,71.0526 -224.5326,101.1961 0,17.2248 -10.4434,25.8373 -23.4975,17.2248 -15.6651,-6.4593 -23.4976,8.6125 -20.8869,32.2967 5.2218,55.9807 33.941,53.8277 133.1531,-8.6124 z m -2026.0154,-247.6074 c 104.4338,-127.0334 198.4243,-303.5882 161.8723,-303.5882 -10.4433,0 -33.9408,30.1435 -52.2168,64.5931 -28.7193,58.134 -36.5519,60.2871 -65.271,30.1436 -15.6651,-19.3779 -33.9411,-94.7367 -36.5519,-167.9424 -2.6108,-71.0525 -15.6651,-139.952 -26.1085,-152.8707 -44.3843,-47.3683 -91.3795,-200.239 -99.212,-322.9662 -33.9411,-671.7696 -31.3302,-725.5974 52.2169,-768.6595 18.2758,-10.7655 7.8325,-17.2249 -28.7193,-17.2249 -65.2712,0 -242.8087,68.8995 -342.0207,131.3396 -33.941,23.6843 -93.9905,40.9092 -133.1531,40.9092 -39.1627,0 -75.7145,4.3061 -83.547,10.7654 -5.2217,6.4594 28.7193,124.8802 75.7145,262.6792 49.606,139.952 117.4879,381.1 151.429,533.9707 33.9409,155.0238 80.9361,338.038 101.8228,409.0906 23.4977,71.0525 41.7736,157.1768 41.7736,191.6266 0,83.9711 93.9905,208.8514 146.2073,191.6266 20.8868,-6.4594 83.5471,-66.7464 135.7639,-133.4927 z m 623.992,79.665 c 18.2758,-19.3781 5.2215,-51.6746 -44.3845,-109.8085 -88.7686,-96.8899 -125.3205,-71.0526 -78.3253,51.6745 33.941,86.1243 78.3253,105.5023 122.7098,58.134 z m 582.2183,-27.9905 c 0,-17.2249 -15.6652,-25.8373 -36.5519,-19.3779 -20.8866,6.4593 -31.3301,25.8372 -23.4975,43.062 15.665,36.6029 60.0494,19.378 60.0494,-23.6841 z m 65.271,32.2966 c 7.8326,-10.7655 2.6109,-21.5309 -10.4433,-21.5309 -15.665,0 -28.7193,10.7654 -28.7193,21.5309 0,12.9187 5.2218,21.5311 10.4433,21.5311 7.8326,0 20.8868,-8.6124 28.7193,-21.5311 z m 835.4703,-144.2581 c 23.4976,-40.9091 39.1627,-77.5119 33.9409,-83.9712 -23.4974,-17.2249 -229.7542,131.3395 -229.7542,165.7892 0,96.8899 122.7097,45.2153 195.8133,-81.818 z m -613.5485,81.818 c 0,-10.7656 -20.8867,-23.6841 -44.3843,-30.1436 -26.1085,-4.3061 -67.882,-17.2247 -91.3795,-25.8372 -26.1085,-8.6124 -46.9953,-6.4593 -46.9953,4.3063 0,12.9186 39.1628,32.2966 86.1579,45.2152 44.3843,10.7655 86.1579,21.5311 91.3795,23.6842 2.6108,2.153 5.2217,-6.4593 5.2217,-17.2249 z m 1026.062,-124.8802 c 20.8868,-58.1339 52.2168,-155.0238 67.8819,-217.4639 33.9411,-137.7989 107.0446,-688.9945 107.0446,-818.181 0,-58.134 10.4434,-88.2775 31.3302,-86.1243 28.7195,6.4593 122.7098,-228.2296 125.3206,-310.0476 0,-25.8373 -33.941,-45.2153 -109.6554,-60.2871 -62.6604,-15.0717 -161.8725,-38.7558 -224.5327,-55.9807 -60.0494,-17.2249 -117.4881,-30.1436 -122.7097,-30.1436 -23.4976,0 -13.0543,271.2916 15.6651,454.3058 31.3301,195.9329 75.7144,277.751 75.7144,137.799 0,-45.2153 7.8325,-75.3589 18.2758,-66.7463 10.4435,8.6122 23.4978,187.3203 23.4978,396.1718 5.2215,307.8944 -2.611,413.3967 -44.3844,555.5018 -26.1084,96.89 -49.6061,187.3204 -49.6061,200.239 0,53.8278 46.9953,-2.1531 86.1579,-99.0429 z m -2871.9291,-21.531 c -20.8867,-167.9425 -54.8277,-215.3109 -41.7735,-55.9809 13.0543,129.1865 23.4976,178.708 44.3843,178.708 5.2217,0 5.2217,-55.9808 -2.6108,-122.7271 z m 1274.0922,15.0716 c 10.4434,-79.6649 2.6108,-111.9616 -54.8277,-200.2389 -36.5519,-55.9809 -75.7146,-101.1962 -88.7687,-101.1962 -23.4976,0 -2.6109,275.5978 20.8866,294.9758 5.2217,6.4593 39.1627,-2.1531 73.1037,-17.2248 54.8278,-23.6842 57.4386,-23.6842 23.4976,8.6125 -23.4976,23.6841 -26.1083,36.6027 -5.2217,36.6027 15.6651,0 31.3302,-8.6124 31.3302,-21.5311 z m -422.9569,-66.7463 c -41.7734,-21.531 -60.0494,-8.6124 -36.5517,21.531 7.8325,12.9187 28.7193,17.225 44.3843,10.7657 15.6651,-8.6126 13.0541,-19.378 -7.8326,-32.2967 z m 1281.9247,-73.2056 c 80.9362,-161.4832 54.8278,-189.4735 -62.6602,-64.5932 -52.2168,58.1338 -86.1578,109.8084 -70.4928,114.1146 15.665,4.3062 28.7193,21.5311 28.7193,38.756 0,64.5932 49.6061,23.6842 104.4337,-88.2774 z m -493.4495,-4.3062 c 0,-23.6842 7.8326,-27.9905 15.6649,-10.7656 5.2219,12.9187 23.4978,25.8372 39.1627,25.8372 18.2761,0 20.8867,-53.8276 10.4435,-165.7892 -33.941,-294.9758 -96.6013,-290.6696 -114.8771,8.6124 -7.8327,122.7272 -2.611,178.708 18.2758,178.708 15.665,0 28.7193,-17.225 31.3302,-36.6028 z m -1723.1575,-202.3922 c -15.665,-51.6745 -33.941,-142.1051 -44.3844,-202.3922 -13.0542,-68.8993 -23.4975,-90.4305 -31.3301,-58.1339 -10.4433,53.8278 70.4928,381.1001 88.7687,363.8753 7.8325,-6.4594 0,-51.6746 -13.0542,-103.3492 z m 1300.2006,-198.0859 c 44.3844,-64.5933 57.4386,-107.6554 41.7735,-135.6458 -18.2759,-36.6028 -23.4975,-36.6028 -36.5517,12.9187 -20.8868,68.8993 -112.2665,193.7797 -143.5966,193.7797 -13.0542,0 -15.6651,-101.1961 -7.8326,-236.8419 15.6651,-228.2295 -10.4433,-322.9662 -44.3842,-155.0238 -20.8869,107.6555 -20.8869,467.2245 2.6109,484.4493 26.1083,23.6842 117.4879,-58.134 187.9807,-163.6362 z m 1161.8258,103.3491 c 28.7193,-64.5933 -52.2169,-527.5114 -93.9903,-527.5114 -15.665,0 -18.2759,17.2248 -7.8326,38.756 10.4433,19.378 23.4976,118.4208 31.3302,219.617 l 15.6651,183.0142 -67.882,-51.6747 c -39.1627,-27.9904 -62.6604,-60.287 -54.8278,-71.0525 7.8325,-10.7656 7.8325,-36.6028 -2.6108,-55.9808 -15.6651,-32.2965 -20.8868,-32.2965 -39.1627,6.4593 -36.5518,71.0525 -31.3302,86.1244 65.2711,191.6266 99.2122,105.5022 127.9314,118.4209 154.0398,66.7463 z m -898.1304,-133.4926 c 0,-10.7656 -18.2761,-36.6029 -39.1628,-58.1339 -23.4976,-25.8373 -39.1627,-90.4306 -39.1627,-159.33 0,-122.7272 31.3302,-172.2487 195.8135,-318.6599 62.6603,-55.9809 112.2663,-195.933 120.0988,-331.5787 5.2216,-109.8085 0,-129.1866 -28.7193,-129.1866 -15.665,0 -20.8868,21.531 -10.4433,51.6748 7.8325,27.9903 2.6107,107.6553 -15.6652,174.4016 -23.4975,92.5837 -60.0494,150.7176 -161.8722,249.7605 -70.493,71.0526 -140.9858,163.6362 -156.6509,206.6984 -26.1084,77.5118 -7.8325,223.9232 36.552,292.8227 20.8866,36.6028 99.2121,51.6746 99.2121,21.5311 z m 610.9376,-77.5119 c 104.4337,-131.3397 54.8277,-316.5069 -125.3205,-471.5307 -96.6014,-81.8181 -109.6556,-107.6553 -138.375,-264.8323 l -31.33,-172.2486 7.8325,200.2392 c 10.4434,198.0858 10.4434,202.3919 101.8231,279.904 101.8228,88.2773 174.9265,208.8513 174.9265,294.9756 0,64.5934 -67.8821,183.0143 -104.4338,183.0143 -15.665,0 -26.1085,10.7655 -26.1085,21.531 0,34.4498 96.6012,-15.0717 140.9857,-71.0525 z m -2323.6517,-275.5977 c -125.3206,-359.5691 -135.764,-493.0617 -36.5519,-493.0617 26.1084,0 57.4386,-8.6126 65.2711,-21.5312 23.4976,-32.2966 -73.1036,-25.8374 -130.5422,6.4593 -39.1626,25.8373 -44.3844,49.5215 -33.941,157.1768 13.0543,114.1148 146.2074,493.0617 169.7049,475.837 2.6109,-4.3064 -10.4434,-60.2871 -33.9409,-124.8802 z m 1503.8464,64.5931 c 0,-23.6843 -10.4433,-36.6028 -26.1085,-30.1435 -13.0541,6.4592 -26.1083,32.2966 -26.1083,55.9808 0,23.6841 13.0542,36.6028 26.1083,30.1434 15.6652,-6.4593 26.1085,-32.2965 26.1085,-55.9807 z m 966.0126,-23.6843 c 0,-27.9903 -13.0543,-64.5932 -26.1084,-81.818 -18.2761,-23.6842 -26.1085,-10.7655 -26.1085,49.5215 0,43.0622 13.0542,79.665 26.1085,79.665 15.665,0 26.1084,-21.5311 26.1084,-47.3685 z m -1584.7827,-163.636 c 7.8325,-34.4498 23.4976,-135.6458 33.9409,-226.0764 l 18.2759,-163.6361 -73.1036,-15.0718 c -99.212,-19.378 -122.7097,17.2248 -109.6555,195.9327 15.6651,223.9232 96.6012,353.1098 130.5423,208.8516 z m 1501.2356,-77.512 c -23.4975,-15.0718 -91.3795,-73.2057 -148.8181,-131.3396 -169.7049,-170.0955 -135.764,-322.9661 39.1627,-174.4017 159.2615,135.6458 229.7543,86.1243 86.1579,-58.1339 -86.1579,-86.1243 -161.8724,-101.196 -237.5869,-43.0622 -99.2122,73.2057 -36.5519,228.2294 146.2073,368.1815 67.8819,51.6746 133.1531,88.2773 140.9855,79.6649 10.4434,-8.6124 -2.6108,-25.8372 -26.1084,-40.909 z m 206.2568,-60.2871 c -7.8326,-17.2248 -15.6651,-10.7654 -15.6651,12.9188 -2.6108,23.6841 5.2218,36.6027 13.0543,27.9903 7.8324,-6.4593 10.4433,-25.8372 2.6108,-40.9091 z m -746.7016,-187.3203 c 52.2169,-111.9616 -23.4975,-217.4638 -156.6507,-217.4638 -57.4386,0 -198.4242,150.7175 -180.1483,193.7797 2.6109,10.7654 67.8819,-10.7656 140.9856,-51.6747 75.7146,-40.909 140.9857,-68.8993 151.429,-62.4402 41.7735,36.603 7.8326,139.9522 -75.7144,230.3826 -49.6061,55.9808 -91.3797,107.6555 -91.3797,116.2679 2.611,25.8373 187.981,-155.0238 211.4785,-208.8515 z m -1242.762,81.8181 c -15.6651,-53.8277 -5.2217,-77.5119 54.8276,-129.1864 62.6604,-53.8277 67.8821,-66.7465 36.5519,-83.9713 -93.9904,-49.5214 -130.5422,-25.8373 -130.5422,81.8181 0,101.1961 20.8867,198.0859 44.3844,198.0859 7.8325,0 5.2217,-30.1435 -5.2217,-66.7463 z m 2336.7058,-249.7604 c 0,-43.0622 -62.6602,-23.6842 -73.1035,21.531 -5.2217,25.8372 2.6109,32.2965 31.33,23.6841 23.4977,-6.4592 41.7735,-27.9904 41.7735,-45.2151 z m 41.7736,-258.3731 c -36.5517,-55.9808 -65.2712,-90.4304 -67.882,-73.2056 0,32.2966 109.6555,200.239 122.7097,187.3204 7.8326,-4.3062 -18.2759,-55.9808 -54.8277,-114.1148 z m -2817.1013,-204.5452 c -7.8326,-15.0718 -13.0542,-4.3063 -13.0542,25.8372 0,30.1436 5.2216,40.9091 13.0542,27.9906 5.2216,-15.0718 5.2216,-40.9092 0,-53.8278 z"
       id="path879"
       style="stroke-width:2.37096" />
    <path
       d="m 730,1846 c 0,-3 9,-10 20,-16 11,-6 20,-8 20,-6 0,3 -9,10 -20,16 -11,6 -20,8 -20,6 z"
       id="path881" />
    <path
       d="m 744,1642 c -12,-30 -2,-72 16,-72 7,0 5,9 -4,22 -14,20 -14,24 1,40 11,12 13,22 7,28 -6,6 -14,0 -20,-18 z"
       id="path883" />
    <path
       d="m 796,1252 c -3,-5 1,-9 9,-9 8,0 15,4 15,9 0,4 -4,8 -9,8 -6,0 -12,-4 -15,-8 z"
       id="path885" />
    <path
       d="m 536,1138 c 3,-4 9,-8 15,-8 5,0 9,4 9,8 0,5 -7,9 -15,9 -8,0 -12,-4 -9,-9 z"
       id="path887" />
    <path
       d="m 456,944 c -4,-14 -5,-28 -3,-31 3,-2 8,8 11,23 4,14 5,28 3,31 -3,2 -8,-8 -11,-23 z"
       id="path889" />
    <path
       d="m 375,419 c -11,-16 -1,-19 13,-3 7,8 8,14 3,14 -5,0 -13,-5 -16,-11 z"
       id="path891" />
  </g>
</svg>
